<svg xmlns="http://www.w3.org/2000/svg" viewBox="0 0 244.3 228.14"><defs><style>.cls-1{fill:#d9eff3;}</style></defs><g id="Layer_2" data-name="Layer 2"><g id="Layer_1-2" data-name="Layer 1"><path class="cls-1" d="M112.05,96.11A2.73,2.73,0,0,1,111,95.9c-4.07-1.63-17.67-8.06-22-22.22a49.38,49.38,0,0,1-.73-26.35c2.44-9.21,7.66-15.47,14.7-17.62s15.42,0,23.12,5.9a45,45,0,0,1,15.5,22,35.6,35.6,0,0,1-2,24.9,2.9,2.9,0,1,1-5.3-2.38c1.81-4,4.44-12.06,1.76-20.83-4.65-15.24-20.49-27.39-31.37-24.06-6.82,2.08-9.69,9.38-10.8,13.56A43.57,43.57,0,0,0,94.52,72c2.84,9.29,11.47,15.66,18.61,18.53a2.9,2.9,0,0,1-1.08,5.59Z"/><path class="cls-1" d="M180.38,121.35A57.91,57.91,0,0,1,123.84,76.2a2.9,2.9,0,1,1,5.66-1.28,52.3,52.3,0,0,0,62,39.45,2.9,2.9,0,1,1,1.22,5.67,58.6,58.6,0,0,1-9.64,1.25C182.17,121.33,181.27,121.35,180.38,121.35Z"/><path class="cls-1" d="M109.39,158.1a2.87,2.87,0,0,1-2.15-1,2.9,2.9,0,0,1,.2-4.09,52.24,52.24,0,0,0,6.88-69.86A2.9,2.9,0,1,1,119,79.73a58,58,0,0,1-7.63,77.62A2.93,2.93,0,0,1,109.39,158.1Z"/><path class="cls-1" d="M129.18,61.39a5.19,5.19,0,0,1-4.83,3.3,5.35,5.35,0,0,1-1.66-.27,3.76,3.76,0,1,0,6.49-3Z"/><path class="cls-1" d="M111.73,70.67a5.17,5.17,0,0,1-5.67,1.45,5.34,5.34,0,0,1-1.46-.82,3.77,3.77,0,1,0,7.13-.63Z"/><path class="cls-1" d="M124.52,162.61C80.69,162.61,45,126.83,45,82.85S80.69,3.09,124.52,3.09,204,38.87,204,82.85,168.34,162.61,124.52,162.61Zm0-153.72c-40.63,0-73.68,33.18-73.68,74s33.05,74,73.68,74,73.67-33.18,73.67-74S165.14,8.89,124.52,8.89Z"/><path class="cls-1" d="M167.56,104.07a38.6,38.6,0,0,1-27.28-11.36,2.9,2.9,0,0,1,4.08-4.13,32.84,32.84,0,0,0,23.2,9.69c13,0,24.64-7.64,30.43-19.94a2.9,2.9,0,1,1,5.24,2.47C196.48,95.16,182.81,104.07,167.56,104.07Z"/><path class="cls-1" d="M83.46,137.55c-.89,0-1.78,0-2.68-.12A32.28,32.28,0,0,1,58,124.57a2.9,2.9,0,0,1,.51-4.06c1.27-1,2.56.06,3.54,1.32,4.82,6.23,12,9.2,19.26,9.82,7.58.67,15-2.15,21-7.91a36.36,36.36,0,0,0,10.6-23.1,2.9,2.9,0,0,1,5.78.5A42.13,42.13,0,0,1,106.3,127.9,32.69,32.69,0,0,1,83.46,137.55Z"/><path class="cls-1" d="M168.5,91.69a16.45,16.45,0,0,1-8.3-2.44l-3.65-2a11.75,11.75,0,0,0-11-1,2.9,2.9,0,0,1-2.24-5.35,17.52,17.52,0,0,1,16.31,1.43l3.44,1.87c4.69,2.74,8.79,2.09,11.63-1.8a8.07,8.07,0,0,0,1.44-6.08,8.28,8.28,0,0,0-3.31-5.39,2.9,2.9,0,1,1,3.41-4.69,14.06,14.06,0,0,1,5.63,9.15,13.84,13.84,0,0,1-2.49,10.43A13.26,13.26,0,0,1,168.5,91.69Z"/><path class="cls-1" d="M83.46,121.63a14.62,14.62,0,0,1-6.6-1.66,13.85,13.85,0,0,1-7-8.13,14,14,0,0,1,.82-10.71,2.9,2.9,0,1,1,5.18,2.61,8.22,8.22,0,0,0-.49,6.3,8.08,8.08,0,0,0,4.07,4.75c4.3,2.17,8.24.87,11.12-3.64l2.24-3.31a17.55,17.55,0,0,1,13.86-8.73,2.9,2.9,0,0,1,.45,5.78,11.76,11.76,0,0,0-9.32,5.92l-.13.2-2.26,3.33C92.4,119.1,88.11,121.63,83.46,121.63Z"/><path class="cls-1" d="M131,149.78a2.9,2.9,0,0,1-2.9-2.9,26.56,26.56,0,0,1,45.34-18.78,2.9,2.9,0,0,1-4.1,4.1,20.76,20.76,0,0,0-35.44,14.68A2.9,2.9,0,0,1,131,149.78Z"/><path class="cls-1" d="M124.42,165.55h-1.19a.63.63,0,0,1-.61-.63.62.62,0,0,1,.62-.61h0c.81,0,1.62,0,2.44,0a.61.61,0,0,1,.62.61.62.62,0,0,1-.61.63Zm-3.64-.08h0c-.83,0-1.65-.09-2.47-.15a.62.62,0,1,1,.08-1.23c.81.06,1.62.11,2.44.14a.63.63,0,0,1,.59.65A.62.62,0,0,1,120.78,165.47Zm7.37,0a.62.62,0,0,1,0-1.23l2.43-.15a.62.62,0,0,1,.09,1.24c-.82.06-1.64.1-2.47.14Zm-12.27-.35h-.06c-.82-.08-1.64-.18-2.46-.29a.62.62,0,1,1,.16-1.22c.81.11,1.61.2,2.43.29a.62.62,0,0,1,.55.67A.63.63,0,0,1,115.88,165.11Zm17.17,0a.62.62,0,0,1-.61-.56.61.61,0,0,1,.55-.67c.81-.09,1.62-.18,2.42-.29a.6.6,0,0,1,.69.53.61.61,0,0,1-.52.69c-.82.11-1.64.21-2.46.29Zm-22-.64h-.1c-.82-.13-1.63-.28-2.44-.44a.62.62,0,0,1,.24-1.21c.8.16,1.6.3,2.4.43a.62.62,0,0,1-.1,1.23Zm26.91,0a.61.61,0,0,1-.1-1.22c.81-.14,1.61-.28,2.4-.44a.62.62,0,0,1,.73.49.61.61,0,0,1-.49.72c-.81.16-1.62.31-2.44.44Zm-31.73-.92-.14,0c-.8-.18-1.61-.37-2.41-.58a.62.62,0,0,1-.44-.75.63.63,0,0,1,.75-.45c.79.21,1.58.4,2.37.58a.61.61,0,0,1,.47.74A.63.63,0,0,1,106.19,163.52Zm36.56,0a.63.63,0,0,1-.61-.49.62.62,0,0,1,.47-.73c.79-.18,1.58-.38,2.37-.58a.61.61,0,1,1,.31,1.19c-.8.21-1.6.41-2.41.59Zm-41.32-1.21a.47.47,0,0,1-.17,0c-.8-.23-1.59-.47-2.37-.73a.62.62,0,1,1,.38-1.17c.77.25,1.55.49,2.33.72a.6.6,0,0,1,.42.76A.62.62,0,0,1,101.43,162.29Zm46.07,0a.62.62,0,0,1-.59-.45.61.61,0,0,1,.42-.76c.78-.23,1.56-.47,2.33-.72a.62.62,0,0,1,.78.4.61.61,0,0,1-.4.77c-.78.26-1.57.5-2.37.73A.47.47,0,0,1,147.5,162.26Zm-50.75-1.49a.52.52,0,0,1-.21,0c-.78-.28-1.56-.57-2.33-.87a.62.62,0,0,1-.35-.8.62.62,0,0,1,.8-.35c.76.3,1.52.59,2.29.86a.63.63,0,0,1,.38.79A.62.62,0,0,1,96.75,160.77Zm55.42,0a.63.63,0,0,1-.58-.41.62.62,0,0,1,.37-.79c.77-.27,1.53-.56,2.29-.86a.62.62,0,0,1,.8.35.62.62,0,0,1-.35.8c-.77.3-1.54.59-2.32.87A.52.52,0,0,1,152.17,160.74Zm-60-1.77a.64.64,0,0,1-.24-.05c-.77-.32-1.52-.66-2.27-1a.61.61,0,0,1-.3-.82.62.62,0,0,1,.82-.3c.74.34,1.48.68,2.23,1a.61.61,0,0,1-.24,1.18Zm64.58,0a.61.61,0,0,1-.24-1.18q1.13-.48,2.22-1a.61.61,0,0,1,.82.3.62.62,0,0,1-.3.82c-.75.35-1.5.68-2.26,1A.49.49,0,0,1,156.74,158.94Zm-69.05-2a.58.58,0,0,1-.28-.07c-.74-.37-1.47-.75-2.2-1.14a.62.62,0,0,1,.59-1.09c.71.39,1.44.76,2.17,1.13a.62.62,0,0,1-.28,1.17Zm73.5,0a.62.62,0,0,1-.56-.34.63.63,0,0,1,.28-.83c.73-.36,1.45-.74,2.16-1.12a.62.62,0,0,1,.58,1.09q-1.08.58-2.19,1.14A.66.66,0,0,1,161.19,156.88Zm-77.83-2.32a.55.55,0,0,1-.31-.08c-.72-.41-1.43-.84-2.13-1.27a.62.62,0,1,1,.65-1.05c.69.43,1.39.84,2.09,1.25a.61.61,0,0,1-.3,1.15Zm82.14,0a.62.62,0,0,1-.53-.3.63.63,0,0,1,.22-.85c.71-.4,1.4-.82,2.09-1.25a.62.62,0,0,1,.65,1c-.7.43-1.4.86-2.12,1.27A.58.58,0,0,1,165.5,154.55ZM79.17,152a.61.61,0,0,1-.34-.1c-.69-.45-1.37-.92-2-1.4a.62.62,0,0,1-.14-.86.61.61,0,0,1,.86-.14c.66.46,1.33.92,2,1.37a.63.63,0,0,1,.18.86A.62.62,0,0,1,79.17,152Zm90.5,0a.62.62,0,0,1-.34-1.13c.68-.45,1.35-.9,2-1.37a.62.62,0,0,1,.71,1c-.67.47-1.35.94-2,1.39A.59.59,0,0,1,169.67,152Zm4-2.83a.62.62,0,0,1-.5-.24.63.63,0,0,1,.12-.87c.65-.48,1.3-1,1.93-1.49a.62.62,0,1,1,.77,1c-.64.51-1.3,1-1.95,1.51A.68.68,0,0,1,173.69,149.14Zm-98.54,0a.63.63,0,0,1-.37-.12c-.66-.5-1.31-1-2-1.52a.62.62,0,1,1,.77-1c.64.5,1.28,1,1.93,1.49a.62.62,0,0,1-.37,1.11Zm102.37-3.06a.62.62,0,0,1-.4-1.09c.62-.52,1.24-1.06,1.84-1.6a.61.61,0,0,1,.87.05.62.62,0,0,1,0,.87c-.62.55-1.24,1.09-1.87,1.62A.59.59,0,0,1,177.52,146.08Zm-106.21,0a.65.65,0,0,1-.4-.14c-.63-.54-1.25-1.08-1.87-1.64a.62.62,0,1,1,.83-.91c.6.54,1.22,1.08,1.84,1.61a.61.61,0,0,1-.4,1.08Zm109.86-3.27a.63.63,0,0,1-.44-.19.62.62,0,0,1,0-.88q.88-.84,1.74-1.71a.62.62,0,0,1,.87,0,.64.64,0,0,1,0,.88c-.58.58-1.17,1.16-1.77,1.73A.6.6,0,0,1,181.17,142.8Zm-113.52,0a.58.58,0,0,1-.42-.17q-.9-.86-1.77-1.74a.62.62,0,0,1,.88-.86q.85.87,1.74,1.71a.61.61,0,0,1,0,.87A.6.6,0,0,1,67.65,142.78Zm117-3.48a.63.63,0,0,1-.42-.17.62.62,0,0,1,0-.87c.56-.6,1.1-1.2,1.64-1.81a.61.61,0,1,1,.92.81c-.54.62-1.09,1.23-1.65,1.84A.65.65,0,0,1,184.62,139.3Zm-120.41,0a.62.62,0,0,1-.46-.19c-.56-.61-1.11-1.22-1.65-1.84a.62.62,0,0,1,0-.87.61.61,0,0,1,.87.06c.54.61,1.08,1.21,1.64,1.81a.63.63,0,0,1,0,.87A.61.61,0,0,1,64.21,139.28Zm123.65-3.68a.62.62,0,0,1-.39-.14.63.63,0,0,1-.09-.87c.52-.63,1-1.27,1.53-1.91a.61.61,0,0,1,.86-.11.62.62,0,0,1,.11.87c-.5.65-1,1.29-1.54,1.93A.62.62,0,0,1,187.86,135.6ZM61,135.59a.63.63,0,0,1-.48-.23c-.52-.63-1-1.28-1.54-1.93a.62.62,0,0,1,.11-.87.63.63,0,0,1,.87.11c.49.64,1,1.28,1.52,1.91a.62.62,0,0,1-.48,1Zm129.9-3.88a.62.62,0,0,1-.36-.12.61.61,0,0,1-.13-.86c.47-.66.94-1.32,1.4-2a.62.62,0,0,1,1,.7c-.46.68-.94,1.36-1.43,2A.63.63,0,0,1,190.87,131.71ZM58,131.71a.59.59,0,0,1-.49-.26c-.49-.66-1-1.34-1.43-2a.62.62,0,1,1,1-.7c.46.68.92,1.34,1.4,2a.62.62,0,0,1-.5,1Zm-2.77-4.06a.63.63,0,0,1-.52-.28c-.44-.69-.87-1.39-1.3-2.1a.63.63,0,0,1,.21-.85.61.61,0,0,1,.85.22c.42.69.85,1.38,1.28,2.06a.63.63,0,0,1-.18.86A.69.69,0,0,1,55.19,127.65Zm138.46,0a.58.58,0,0,1-.33-.1.61.61,0,0,1-.19-.85c.44-.69.87-1.38,1.29-2.08a.61.61,0,0,1,.84-.21.62.62,0,0,1,.22.85c-.43.71-.86,1.41-1.31,2.11A.63.63,0,0,1,193.65,127.65Zm-141-4.2a.64.64,0,0,1-.54-.32c-.4-.72-.79-1.44-1.17-2.17a.62.62,0,0,1,1.09-.57c.38.72.76,1.43,1.16,2.14a.61.61,0,0,1-.24.84A.64.64,0,0,1,52.67,123.45Zm143.51,0a.64.64,0,0,1-.3-.08.62.62,0,0,1-.24-.84c.4-.71.79-1.43,1.16-2.15a.62.62,0,1,1,1.1.57c-.38.73-.78,1.46-1.18,2.18A.62.62,0,0,1,196.18,123.43ZM50.41,119.1a.63.63,0,0,1-.56-.35c-.36-.74-.7-1.49-1-2.24a.62.62,0,0,1,1.13-.5c.33.74.67,1.47,1,2.2a.62.62,0,0,1-.29.83A.58.58,0,0,1,50.41,119.1Zm148,0a.66.66,0,0,1-.27-.06.63.63,0,0,1-.28-.83c.35-.73.7-1.47,1-2.21a.62.62,0,0,1,.81-.32.62.62,0,0,1,.31.82c-.33.76-.68,1.51-1,2.25A.63.63,0,0,1,198.45,119.06Zm-150-4.43a.61.61,0,0,1-.57-.39c-.32-.76-.62-1.53-.91-2.3a.61.61,0,0,1,1.15-.43c.29.76.59,1.51.9,2.26a.62.62,0,0,1-.34.81A.59.59,0,0,1,48.41,114.63Zm152.05-.07a.69.69,0,0,1-.24,0,.61.61,0,0,1-.33-.8c.31-.76.61-1.51.89-2.28a.62.62,0,1,1,1.16.44c-.29.77-.59,1.54-.91,2.31A.63.63,0,0,1,200.46,114.56ZM46.68,110a.62.62,0,0,1-.59-.42c-.27-.78-.52-1.57-.76-2.36a.61.61,0,1,1,1.17-.36c.24.78.5,1.55.76,2.32a.61.61,0,0,1-.38.78A.51.51,0,0,1,46.68,110ZM202.19,110a.79.79,0,0,1-.2,0,.61.61,0,0,1-.38-.78c.26-.77.51-1.55.76-2.33a.6.6,0,0,1,.77-.41.61.61,0,0,1,.4.77c-.24.8-.5,1.58-.76,2.37A.64.64,0,0,1,202.19,110Zm-157-4.62a.61.61,0,0,1-.59-.45q-.33-1.18-.63-2.4a.62.62,0,0,1,.46-.74.6.6,0,0,1,.74.45c.2.79.4,1.58.62,2.36a.62.62,0,0,1-.43.76Zm158.42-.09-.16,0a.62.62,0,0,1-.43-.76c.21-.78.42-1.57.61-2.36a.6.6,0,0,1,.74-.45.61.61,0,0,1,.46.74c-.2.8-.4,1.6-.62,2.4A.63.63,0,0,1,203.64,105.24ZM44.06,100.56a.63.63,0,0,1-.61-.49q-.26-1.21-.48-2.43a.62.62,0,1,1,1.22-.22c.14.8.3,1.6.47,2.39a.63.63,0,0,1-.47.74Zm160.74-.09-.12,0a.61.61,0,0,1-.48-.73c.17-.79.32-1.59.47-2.39a.61.61,0,1,1,1.21.22c-.14.81-.3,1.62-.47,2.42A.62.62,0,0,1,204.8,100.47ZM43.18,95.72a.62.62,0,0,1-.61-.52c-.12-.82-.23-1.63-.33-2.46a.61.61,0,0,1,1.22-.14c.1.81.21,1.61.33,2.41a.62.62,0,0,1-.52.71Zm162.5-.09h-.1a.61.61,0,0,1-.52-.7c.12-.8.23-1.61.33-2.42a.61.61,0,1,1,1.22.15c-.09.82-.2,1.64-.33,2.45A.6.6,0,0,1,205.68,95.63ZM42.59,90.84a.62.62,0,0,1-.61-.56c-.07-.82-.14-1.64-.19-2.47a.62.62,0,0,1,.58-.65.63.63,0,0,1,.66.58q.07,1.22.18,2.43a.62.62,0,0,1-.56.67Zm163.67-.09h-.06a.62.62,0,0,1-.56-.67q.11-1.22.18-2.43a.62.62,0,1,1,1.23.07c-.05.82-.11,1.65-.18,2.47A.62.62,0,0,1,206.26,90.75Zm-164-4.81a.63.63,0,0,1-.62-.6c0-.82,0-1.65,0-2.47a.62.62,0,0,1,.62-.62h0a.61.61,0,0,1,.62.61c0,.82,0,1.63,0,2.44a.62.62,0,0,1-.6.64Zm164.24-.1h0a.61.61,0,0,1-.6-.63c0-.81,0-1.62,0-2.44v-.19a.62.62,0,0,1,1.24,0v.18c0,.84,0,1.66,0,2.49A.61.61,0,0,1,206.54,85.84ZM42.29,81h0a.61.61,0,0,1-.6-.63c0-.83.06-1.65.1-2.47A.62.62,0,0,1,43,78c-.05.81-.09,1.62-.11,2.44A.61.61,0,0,1,42.29,81Zm164.25-.28a.61.61,0,0,1-.62-.6c0-.81-.06-1.62-.11-2.43a.62.62,0,0,1,.58-.66.6.6,0,0,1,.65.58c.05.82.09,1.65.11,2.48a.61.61,0,0,1-.59.63Zm-164-4.62h-.06a.62.62,0,0,1-.56-.67c.07-.83.16-1.65.26-2.47a.61.61,0,1,1,1.22.15c-.09.81-.18,1.61-.25,2.43A.62.62,0,0,1,42.58,76.12Zm163.66-.28a.62.62,0,0,1-.62-.56c-.07-.82-.16-1.62-.25-2.43a.61.61,0,1,1,1.22-.15c.1.82.19,1.64.26,2.46a.61.61,0,0,1-.55.67ZM43.15,71.24h-.09a.61.61,0,0,1-.52-.7c.12-.82.26-1.63.4-2.44a.62.62,0,0,1,1.22.21c-.15.8-.28,1.61-.4,2.41A.61.61,0,0,1,43.15,71.24ZM205.64,71a.6.6,0,0,1-.6-.53c-.13-.8-.26-1.6-.41-2.4a.62.62,0,0,1,.5-.72.61.61,0,0,1,.72.5c.15.81.28,1.62.41,2.44a.61.61,0,0,1-.52.7ZM44,66.4h-.13a.62.62,0,0,1-.48-.73c.17-.81.36-1.62.55-2.42a.62.62,0,0,1,1.2.29c-.19.79-.37,1.58-.54,2.38A.62.62,0,0,1,44,66.4Zm160.74-.28a.61.61,0,0,1-.6-.48c-.17-.8-.35-1.59-.55-2.38a.62.62,0,0,1,.46-.75.61.61,0,0,1,.74.45c.2.8.38,1.61.56,2.42a.62.62,0,0,1-.48.73ZM45.17,61.62a.44.44,0,0,1-.16,0,.62.62,0,0,1-.43-.76q.33-1.19.69-2.37a.62.62,0,0,1,1.18.36c-.24.77-.47,1.56-.68,2.34A.62.62,0,0,1,45.17,61.62Zm158.42-.27a.61.61,0,0,1-.59-.45c-.22-.78-.45-1.57-.69-2.34a.61.61,0,0,1,.4-.77.62.62,0,0,1,.78.4c.24.79.47,1.58.7,2.38a.62.62,0,0,1-.43.76Zm-157-4.43a.64.64,0,0,1-.2,0A.63.63,0,0,1,46,56.1q.4-1.17.84-2.34a.61.61,0,0,1,.79-.36.62.62,0,0,1,.36.8c-.28.76-.56,1.53-.82,2.3A.62.62,0,0,1,46.62,56.92Zm155.52-.26a.62.62,0,0,1-.59-.42c-.26-.77-.54-1.53-.83-2.29a.62.62,0,0,1,1.16-.44c.29.77.57,1.55.84,2.33a.61.61,0,0,1-.38.78A.51.51,0,0,1,202.14,56.66ZM48.34,52.3a.66.66,0,0,1-.23,0,.62.62,0,0,1-.34-.81c.32-.76.64-1.53,1-2.28a.62.62,0,0,1,.81-.32.64.64,0,0,1,.32.82q-.51,1.11-1,2.25A.62.62,0,0,1,48.34,52.3Zm152.06-.24a.6.6,0,0,1-.57-.38c-.31-.75-.63-1.5-1-2.23a.62.62,0,1,1,1.12-.51c.34.75.66,1.51,1,2.27a.61.61,0,0,1-.34.8A.46.46,0,0,1,200.4,52.06Zm-150-4.26a.63.63,0,0,1-.27-.06.61.61,0,0,1-.29-.82q.54-1.12,1.11-2.22a.62.62,0,0,1,.83-.27.64.64,0,0,1,.27.84c-.38.72-.74,1.45-1.1,2.18A.6.6,0,0,1,50.35,47.8Zm148-.21a.61.61,0,0,1-.55-.35c-.35-.73-.72-1.45-1.1-2.17a.62.62,0,0,1,1.1-.57c.38.73.75,1.46,1.11,2.2a.62.62,0,0,1-.56.89ZM52.61,43.43a.56.56,0,0,1-.3-.08.63.63,0,0,1-.24-.84c.41-.72.82-1.44,1.24-2.14a.62.62,0,1,1,1.06.63c-.41.7-.82,1.4-1.22,2.11A.6.6,0,0,1,52.61,43.43Zm143.51-.19a.63.63,0,0,1-.54-.31c-.39-.71-.8-1.41-1.22-2.11a.62.62,0,0,1,1.06-.63c.42.7.84,1.42,1.24,2.14a.62.62,0,0,1-.24.84A.6.6,0,0,1,196.12,43.24Zm-141-4a.64.64,0,0,1-.33-.1.62.62,0,0,1-.19-.85c.44-.7.9-1.39,1.36-2.07a.62.62,0,0,1,.86-.16.6.6,0,0,1,.16.85c-.45.68-.9,1.35-1.34,2A.64.64,0,0,1,55.14,39.21ZM193.6,39a.62.62,0,0,1-.52-.28c-.44-.69-.89-1.36-1.35-2a.62.62,0,1,1,1-.7c.46.68.92,1.37,1.37,2.06a.61.61,0,0,1-.19.85A.58.58,0,0,1,193.6,39ZM57.91,35.14a.6.6,0,0,1-.36-.12.61.61,0,0,1-.14-.86c.49-.67,1-1.33,1.49-2a.61.61,0,0,1,1,.75c-.49.65-1,1.3-1.46,2A.63.63,0,0,1,57.91,35.14ZM190.82,35a.63.63,0,0,1-.5-.25c-.48-.66-1-1.31-1.46-2a.62.62,0,0,1,1-.76c.51.66,1,1.31,1.49,2a.62.62,0,0,1-.13.86A.63.63,0,0,1,190.82,35ZM60.92,31.25a.57.57,0,0,1-.39-.14.62.62,0,0,1-.09-.87C61,29.6,61.5,29,62,28.35a.63.63,0,0,1,.87-.06.61.61,0,0,1,.06.87c-.53.62-1.06,1.24-1.57,1.87A.66.66,0,0,1,60.92,31.25Zm126.89-.14a.62.62,0,0,1-.48-.22c-.51-.63-1-1.25-1.57-1.86a.61.61,0,1,1,.92-.81c.55.62,1.08,1.25,1.61,1.88a.62.62,0,0,1-.09.87A.57.57,0,0,1,187.81,31.11ZM64.15,27.55a.63.63,0,0,1-.42-.17.62.62,0,0,1,0-.87c.56-.6,1.13-1.2,1.71-1.79a.62.62,0,1,1,.88.87c-.57.58-1.13,1.16-1.69,1.76A.61.61,0,0,1,64.15,27.55Zm120.42-.13a.62.62,0,0,1-.45-.2c-.55-.59-1.12-1.18-1.69-1.76a.62.62,0,1,1,.88-.86c.58.58,1.15,1.18,1.71,1.78a.63.63,0,0,1,0,.88A.61.61,0,0,1,184.57,27.42Zm-117-3.37a.62.62,0,0,1-.45-.2.62.62,0,0,1,0-.87c.6-.57,1.2-1.13,1.81-1.68a.62.62,0,1,1,.83.91c-.6.55-1.2,1.1-1.79,1.66A.58.58,0,0,1,67.6,24.05Zm113.52-.12a.65.65,0,0,1-.43-.17c-.59-.57-1.18-1.12-1.79-1.66a.62.62,0,0,1,0-.87.61.61,0,0,1,.87-.05c.61.55,1.22,1.11,1.82,1.68a.62.62,0,0,1-.43,1.07ZM71.25,20.75a.64.64,0,0,1-.48-.21.62.62,0,0,1,.08-.87c.62-.54,1.26-1.06,1.9-1.58a.62.62,0,0,1,.87.1.63.63,0,0,1-.09.87c-.64.5-1.27,1-1.89,1.55A.57.57,0,0,1,71.25,20.75Zm106.21-.11a.62.62,0,0,1-.4-.15c-.62-.52-1.25-1-1.88-1.54a.62.62,0,1,1,.77-1c.64.51,1.28,1,1.91,1.57a.62.62,0,0,1,.07.87A.59.59,0,0,1,177.46,20.64ZM75.08,17.69a.62.62,0,0,1-.37-1.11c.66-.5,1.32-1,2-1.46a.61.61,0,0,1,.86.15.62.62,0,0,1-.15.86c-.66.47-1.32.94-2,1.43A.58.58,0,0,1,75.08,17.69Zm98.54-.11a.58.58,0,0,1-.37-.13c-.65-.48-1.31-1-2-1.43a.62.62,0,0,1-.15-.86A.61.61,0,0,1,172,15c.68.48,1.35,1,2,1.46a.62.62,0,0,1,.12.86A.63.63,0,0,1,173.62,17.58ZM79.09,14.85a.62.62,0,0,1-.52-.27.63.63,0,0,1,.18-.86c.68-.45,1.38-.9,2.08-1.33a.62.62,0,1,1,.65,1c-.69.43-1.37.86-2,1.31A.61.61,0,0,1,79.09,14.85Zm90.5-.1a.74.74,0,0,1-.34-.1c-.68-.45-1.36-.89-2.06-1.32a.62.62,0,1,1,.65-1.05c.7.44,1.4.88,2.09,1.34a.61.61,0,0,1,.18.85A.63.63,0,0,1,169.59,14.75ZM83.26,12.27a.62.62,0,0,1-.54-.31.61.61,0,0,1,.23-.84c.71-.42,1.43-.82,2.15-1.21a.62.62,0,0,1,.84.25.61.61,0,0,1-.25.83c-.72.39-1.42.79-2.12,1.19A.61.61,0,0,1,83.26,12.27Zm82.14-.11a.54.54,0,0,1-.3-.08c-.71-.41-1.42-.8-2.14-1.19a.62.62,0,0,1,.58-1.09c.73.4,1.46.8,2.17,1.21a.61.61,0,0,1,.23.84A.62.62,0,0,1,165.4,12.16ZM87.57,9.93a.61.61,0,0,1-.28-1.16q1.11-.55,2.22-1.08a.63.63,0,0,1,.83.3.62.62,0,0,1-.3.82c-.74.34-1.47.69-2.19,1.06A.71.71,0,0,1,87.57,9.93Zm73.5-.1a.67.67,0,0,1-.28-.06c-.73-.37-1.46-.72-2.2-1.06a.61.61,0,0,1-.3-.82.62.62,0,0,1,.82-.3c.75.35,1.49.7,2.23,1.07a.62.62,0,0,1-.27,1.17ZM92,7.87a.6.6,0,0,1-.56-.38.62.62,0,0,1,.32-.81c.75-.32,1.51-.64,2.28-.94a.62.62,0,1,1,.45,1.15c-.75.3-1.5.61-2.24.93A.74.74,0,0,1,92,7.87Zm64.59-.1a.7.7,0,0,1-.25,0c-.75-.32-1.5-.63-2.26-.93a.61.61,0,0,1-.35-.8.62.62,0,0,1,.8-.35c.77.3,1.54.62,2.3.94a.62.62,0,0,1,.32.81A.6.6,0,0,1,156.6,7.77Zm-60-1.7a.62.62,0,0,1-.21-1.2q1.16-.42,2.34-.81a.62.62,0,1,1,.38,1.18c-.77.25-1.54.51-2.3.79A.78.78,0,0,1,96.58,6.07ZM152,6l-.2,0c-.77-.28-1.54-.54-2.32-.79A.62.62,0,1,1,149.86,4c.79.25,1.57.52,2.35.79a.63.63,0,0,1,.38.79A.61.61,0,0,1,152,6ZM101.25,4.54a.6.6,0,0,1-.59-.44.62.62,0,0,1,.41-.77c.79-.23,1.59-.45,2.39-.66a.61.61,0,0,1,.31,1.19c-.79.21-1.57.43-2.35.66Zm46.07-.08-.17,0c-.78-.23-1.57-.44-2.35-.65a.62.62,0,0,1-.45-.75.61.61,0,0,1,.75-.44c.8.2,1.6.42,2.39.65a.62.62,0,0,1,.42.77A.61.61,0,0,1,147.32,4.46ZM106,3.3a.62.62,0,0,1-.6-.48.62.62,0,0,1,.46-.74c.81-.18,1.61-.36,2.43-.52a.62.62,0,0,1,.24,1.22c-.8.15-1.6.32-2.39.5Zm36.56-.06-.14,0c-.79-.18-1.58-.34-2.38-.5a.61.61,0,0,1-.49-.72.61.61,0,0,1,.72-.49q1.22.24,2.43.51a.61.61,0,0,1,.46.74A.62.62,0,0,1,142.56,3.24Zm-31.74-.89a.62.62,0,0,1-.1-1.23c.81-.13,1.63-.26,2.45-.37a.63.63,0,0,1,.7.53.62.62,0,0,1-.53.69c-.81.11-1.62.24-2.41.37Zm26.92-.05h-.1c-.8-.13-1.61-.25-2.42-.35a.63.63,0,0,1-.53-.7.63.63,0,0,1,.7-.53c.82.11,1.63.23,2.45.36a.62.62,0,0,1,.5.71A.6.6,0,0,1,137.74,2.3Zm-22.05-.61a.62.62,0,0,1-.06-1.24c.82-.08,1.64-.16,2.46-.22a.63.63,0,0,1,.67.57.62.62,0,0,1-.57.66c-.82.06-1.63.14-2.43.22Zm17.18,0h-.07q-1.2-.12-2.43-.21a.62.62,0,0,1-.57-.66.63.63,0,0,1,.66-.57c.83.06,1.65.13,2.47.21a.62.62,0,0,1,.55.68A.62.62,0,0,1,132.87,1.66Zm-12.28-.35A.6.6,0,0,1,120,.73a.62.62,0,0,1,.58-.65C121.39,0,122.21,0,123,0h0a.62.62,0,0,1,.62.61.63.63,0,0,1-.61.63c-.82,0-1.63,0-2.44.07Zm7.37,0h0l-2.44-.07a.61.61,0,0,1-.61-.62.6.6,0,0,1,.63-.61c.82,0,1.65,0,2.47.07a.62.62,0,0,1,0,1.23Z"/><path class="cls-1" d="M0,197.62a15.43,15.43,0,0,1,.61-4.37A16.13,16.13,0,0,1,5,186a17.28,17.28,0,0,1,7.53-4.2,18.41,18.41,0,0,1,9.09,0,17.43,17.43,0,0,1,4.09,1.65A17.15,17.15,0,0,1,29.18,186a15.75,15.75,0,0,1,2.68,3.31,16.19,16.19,0,0,1,1.73,3.92,16,16,0,0,1,0,8.74,16.38,16.38,0,0,1-4.41,7.25,17.15,17.15,0,0,1-3.47,2.55,18.31,18.31,0,0,1-4.09,1.64,17.8,17.8,0,0,1-9.09,0,18.23,18.23,0,0,1-4.08-1.64A17.3,17.3,0,0,1,5,209.24a17.12,17.12,0,0,1-2.67-3.33A16.38,16.38,0,0,1,.61,202,15.38,15.38,0,0,1,0,197.62Zm7.27,0a10.23,10.23,0,0,0,.77,4,10,10,0,0,0,2.1,3.21A9.68,9.68,0,0,0,13.27,207a9.48,9.48,0,0,0,3.82.77,9.7,9.7,0,0,0,7-2.89,10.18,10.18,0,0,0,2.09-3.21,10.85,10.85,0,0,0,0-8,10.18,10.18,0,0,0-2.09-3.21,9.7,9.7,0,0,0-7-2.89,9.48,9.48,0,0,0-3.82.77,9.68,9.68,0,0,0-3.13,2.12A10,10,0,0,0,8,193.63,10.25,10.25,0,0,0,7.27,197.65Z"/><path class="cls-1" d="M56.25,203.94H51.6v10.19H44.31V182.85H58a13,13,0,0,1,4.53.77,11,11,0,0,1,3.58,2.16,9.79,9.79,0,0,1,2.34,3.34,10.76,10.76,0,0,1,.84,4.31,11.64,11.64,0,0,1-.41,3.12,10,10,0,0,1-1.18,2.65,9.09,9.09,0,0,1-1.84,2.12,10.53,10.53,0,0,1-2.41,1.54l6.6,11.27H61.7Zm1.47-6.25a4.64,4.64,0,0,0,1.68-.31,4.33,4.33,0,0,0,1.37-.87,4,4,0,0,0,.92-1.33,4.75,4.75,0,0,0,0-3.48,4.16,4.16,0,0,0-2.29-2.27,4.45,4.45,0,0,0-1.68-.32H51.6v8.58Z"/><path class="cls-1" d="M79.08,214.13V182.85H93a13.91,13.91,0,0,1,4.17.59,9.14,9.14,0,0,1,3.18,1.7,7.52,7.52,0,0,1,2,2.74,9.23,9.23,0,0,1,.71,3.71,6,6,0,0,1-.31,1.91,7.34,7.34,0,0,1-.83,1.74,6.77,6.77,0,0,1-1.21,1.4,4.81,4.81,0,0,1-1.45.91,8.41,8.41,0,0,1,2.13,1.09,8.62,8.62,0,0,1,1.76,1.65,7.34,7.34,0,0,1,1.2,2.09,6.72,6.72,0,0,1,.43,2.41,9.14,9.14,0,0,1-.92,4.3,8.31,8.31,0,0,1-2.4,2.89,9.87,9.87,0,0,1-3.37,1.63,14.19,14.19,0,0,1-3.82.52Zm7.27-18.74h6.21a2.91,2.91,0,0,0,1.12-.23,3.27,3.27,0,0,0,1.7-1.68,3.09,3.09,0,0,0,.28-1.34,3.41,3.41,0,0,0-.26-1.32,3.31,3.31,0,0,0-.71-1,3.09,3.09,0,0,0-1-.68,2.83,2.83,0,0,0-1.13-.24H86.35Zm7.22,12.74a4.1,4.1,0,0,0,1.23-.22,3.71,3.71,0,0,0,2.13-1.81A3.84,3.84,0,0,0,97,203a3.41,3.41,0,0,0-.8-1.13,3.58,3.58,0,0,0-1.19-.72,4,4,0,0,0-1.43-.26H86.35v7.25Z"/><path class="cls-1" d="M134.5,209.16H121.39l-2,5h-7.7l12.81-31.3h6.85l12.81,31.3H136.5ZM123.9,203H132l-3.79-9.45-.23-1h0l-.23,1Z"/><path class="cls-1" d="M152.76,182.85h7.29v25h13.1v6.26H152.76Z"/><path class="cls-1" d="M182.69,182.85H190v25h13.11v6.26h-20.4Z"/><path class="cls-1" d="M210.1,197.93a15.75,15.75,0,0,1,.61-4.37,16.37,16.37,0,0,1,4.39-7.23,17.75,17.75,0,0,1,3.45-2.56,17.24,17.24,0,0,1,4.09-1.64,18.06,18.06,0,0,1,9.08,0,17.24,17.24,0,0,1,4.09,1.64,17.65,17.65,0,0,1,3.48,2.56,16.13,16.13,0,0,1,2.68,3.31,16.38,16.38,0,0,1,1.72,3.92,16,16,0,0,1,0,8.74,16.14,16.14,0,0,1-4.4,7.24,16.89,16.89,0,0,1-3.48,2.56,18.12,18.12,0,0,1-4.09,1.64,17.76,17.76,0,0,1-9.08,0,18.12,18.12,0,0,1-4.09-1.64,17,17,0,0,1-3.45-2.56,16.37,16.37,0,0,1-2.66-3.32,16.19,16.19,0,0,1-1.73-3.92A15.8,15.8,0,0,1,210.1,197.93Zm7.27,0a10.38,10.38,0,0,0,.77,4,10,10,0,0,0,2.1,3.21,9.87,9.87,0,0,0,10.81,2.13,9.41,9.41,0,0,0,3.12-2.13,10,10,0,0,0,2.09-3.21,10.83,10.83,0,0,0,0-8,10.07,10.07,0,0,0-2.09-3.21,9.85,9.85,0,0,0-10.8-2.13,10,10,0,0,0-3.13,2.13,10.09,10.09,0,0,0-2.1,3.21A10.38,10.38,0,0,0,217.37,198Z"/><path class="cls-1" d="M210.48,226.77a1.33,1.33,0,1,1,1.3,1.37A1.29,1.29,0,0,1,210.48,226.77Z"/><path class="cls-1" d="M215.46,218.14a20.35,20.35,0,0,1,3-.22,6.49,6.49,0,0,1,4.1,1.07,4.41,4.41,0,0,1,1.69,3.76,5.13,5.13,0,0,1-1.64,4,7.24,7.24,0,0,1-4.62,1.29,20,20,0,0,1-2.56-.15Zm2.25,8.13a4.66,4.66,0,0,0,.78,0c2.06,0,3.41-1.11,3.41-3.49a2.89,2.89,0,0,0-3.17-3.17,5,5,0,0,0-1,.09Z"/><path class="cls-1" d="M232.59,223.75h-3.67v2.37H233V228h-6.35V218h6.14v1.86h-3.89v2.07h3.67Z"/><path class="cls-1" d="M237.91,228l-3.2-10h2.48l1.21,4.22c.34,1.2.65,2.33.89,3.57h0c.25-1.2.56-2.38.9-3.52l1.28-4.27h2.39l-3.36,10Z"/></g></g></svg>