<svg xmlns="http://www.w3.org/2000/svg" viewBox="0 0 197.94 180.98"><defs><style>.cls-1{fill:#082846;}</style></defs><g id="Layer_2" data-name="Layer 2"><g id="Layer_1-2" data-name="Layer 1"><path class="cls-1" d="M90.78,77.87a2.21,2.21,0,0,1-.87-.17c-3.3-1.32-14.32-6.53-17.82-18a40.12,40.12,0,0,1-.59-21.35c2-7.47,6.21-12.54,11.91-14.28s12.49,0,18.74,4.79A36.35,36.35,0,0,1,114.7,46.69a28.84,28.84,0,0,1-1.63,20.18,2.35,2.35,0,1,1-4.29-1.93c1.47-3.25,3.6-9.77,1.43-16.88-3.77-12.35-16.6-22.19-25.42-19.49-5.52,1.68-7.85,7.6-8.75,11a35.26,35.26,0,0,0,.55,18.78c2.29,7.52,9.29,12.69,15.07,15a2.35,2.35,0,0,1-.88,4.53Z"/><path class="cls-1" d="M146.14,98.32a46.91,46.91,0,0,1-45.8-36.58,2.35,2.35,0,1,1,4.58-1,42.22,42.22,0,0,0,43.19,32.87,41.48,41.48,0,0,0,7-.91,2.35,2.35,0,0,1,1,4.6,47.42,47.42,0,0,1-7.81,1C147.6,98.3,146.87,98.32,146.14,98.32Z"/><path class="cls-1" d="M88.63,128.09A2.35,2.35,0,0,1,87.05,124a42.31,42.31,0,0,0,5.58-56.6,2.35,2.35,0,0,1,3.77-2.8,47,47,0,0,1-6.19,62.89A2.38,2.38,0,0,1,88.63,128.09Z"/><path class="cls-1" d="M104.66,49.74a4.21,4.21,0,0,1-3.91,2.68,4,4,0,0,1-1.34-.23,3.05,3.05,0,0,0,6.08-.38A3,3,0,0,0,104.66,49.74Z"/><path class="cls-1" d="M90.53,57.26a4.19,4.19,0,0,1-4.6,1.17,4.38,4.38,0,0,1-1.18-.66,3.05,3.05,0,1,0,5.78-.51Z"/><path class="cls-1" d="M100.89,131.75a64.63,64.63,0,1,1,64.39-64.62A64.58,64.58,0,0,1,100.89,131.75Zm0-124.55a59.93,59.93,0,1,0,59.69,59.93A59.89,59.89,0,0,0,100.89,7.2Z"/><path class="cls-1" d="M135.76,84.32a31.29,31.29,0,0,1-22.1-9.21,2.35,2.35,0,1,1,3.3-3.34,26.6,26.6,0,0,0,18.8,7.85c10.52,0,20-6.19,24.65-16.15a2.35,2.35,0,0,1,4.26,2C159.2,77.1,148.12,84.32,135.76,84.32Z"/><path class="cls-1" d="M67.62,111.45c-.72,0-1.44,0-2.17-.1A26.16,26.16,0,0,1,47,100.93a2.34,2.34,0,0,1,.41-3.29c1-.8,2.08,0,2.87,1.07,3.91,5.05,9.73,7.45,15.6,8a21.58,21.58,0,0,0,17-6.42,29.48,29.48,0,0,0,8.6-18.71,2.35,2.35,0,1,1,4.68.41,34.17,34.17,0,0,1-10,21.68A26.45,26.45,0,0,1,67.62,111.45Z"/><path class="cls-1" d="M136.52,74.29a13.32,13.32,0,0,1-6.72-2l-3-1.62a9.53,9.53,0,0,0-8.91-.81,2.35,2.35,0,0,1-1.82-4.34,14.26,14.26,0,0,1,13.22,1.16l2.78,1.52c3.81,2.22,7.13,1.7,9.42-1.45a6.58,6.58,0,0,0,1.18-4.94A6.69,6.69,0,0,0,140,57.47a2.35,2.35,0,1,1,2.77-3.8,11.41,11.41,0,0,1,4.56,7.42,11.2,11.2,0,0,1-2,8.44A10.74,10.74,0,0,1,136.52,74.29Z"/><path class="cls-1" d="M67.62,98.55a11.88,11.88,0,0,1-5.34-1.34,11.37,11.37,0,0,1-5-15.27,2.35,2.35,0,1,1,4.2,2.11,6.68,6.68,0,0,0-.4,5.11A6.52,6.52,0,0,0,64.39,93c3.48,1.75,6.68.7,9-3l1.82-2.68A14.21,14.21,0,0,1,86.44,80.3,2.35,2.35,0,0,1,86.81,85a9.53,9.53,0,0,0-7.56,4.79l-.1.16-1.83,2.7C74.87,96.5,71.39,98.55,67.62,98.55Z"/><path class="cls-1" d="M106.16,121.36a2.35,2.35,0,0,1-2.35-2.35,21.52,21.52,0,0,1,36.74-15.22,2.35,2.35,0,0,1-3.32,3.32A16.83,16.83,0,0,0,108.51,119,2.35,2.35,0,0,1,106.16,121.36Z"/><path class="cls-1" d="M100.81,134.13h-1a.5.5,0,0,1-.49-.5.52.52,0,0,1,.51-.5h2a.51.51,0,0,1,.5.49.49.49,0,0,1-.49.51Zm-3-.06h0c-.67,0-1.34-.07-2-.12a.5.5,0,1,1,.07-1c.65.05,1.31.09,2,.12a.5.5,0,0,1,0,1Zm6,0a.5.5,0,0,1,0-1l2-.11a.5.5,0,1,1,.08,1l-2,.12Zm-9.94-.29h0l-2-.23a.5.5,0,0,1-.43-.57.48.48,0,0,1,.56-.42l2,.23a.5.5,0,0,1,0,1Zm13.91,0a.49.49,0,0,1-.49-.45.5.5,0,0,1,.44-.55l2-.23a.48.48,0,0,1,.56.42.5.5,0,0,1-.42.57l-2,.23Zm-17.86-.52h-.08c-.66-.11-1.32-.22-2-.35a.51.51,0,0,1-.4-.59.5.5,0,0,1,.59-.39l1.94.35a.5.5,0,0,1,.42.57A.51.51,0,0,1,89.94,133.25Zm21.81,0a.5.5,0,0,1-.08-1c.65-.1,1.3-.22,1.94-.35a.5.5,0,1,1,.2,1q-1,.19-2,.36ZM86,132.49l-.11,0c-.66-.14-1.31-.3-2-.47a.5.5,0,0,1,.25-1c.63.17,1.27.32,1.92.47a.5.5,0,0,1-.11,1Zm29.62,0a.5.5,0,0,1-.11-1c.64-.15,1.28-.3,1.91-.47a.49.49,0,0,1,.61.36.5.5,0,0,1-.35.61q-1,.26-2,.48Zm-33.48-1-.14,0c-.64-.19-1.28-.38-1.92-.59a.51.51,0,0,1-.32-.63.5.5,0,0,1,.63-.32l1.89.58a.5.5,0,0,1-.14,1Zm37.33,0a.5.5,0,0,1-.48-.36.49.49,0,0,1,.34-.62c.63-.19,1.26-.38,1.89-.59a.51.51,0,0,1,.63.32.5.5,0,0,1-.32.63q-1,.32-1.92.6Zm-41.12-1.21a.47.47,0,0,1-.17,0c-.63-.23-1.26-.46-1.89-.71a.5.5,0,0,1,.37-.93c.61.24,1.23.48,1.85.7a.5.5,0,0,1,.31.64A.52.52,0,0,1,78.39,130.26Zm44.91,0a.52.52,0,0,1-.48-.33.51.51,0,0,1,.31-.64l1.85-.7a.51.51,0,0,1,.65.28.5.5,0,0,1-.29.65l-1.87.71ZM74.67,128.8a.48.48,0,0,1-.2,0c-.61-.26-1.23-.53-1.83-.82a.49.49,0,0,1-.25-.66.5.5,0,0,1,.67-.24l1.8.8a.5.5,0,0,1-.19,1Zm52.33,0a.49.49,0,0,1-.46-.3.5.5,0,0,1,.26-.66l1.8-.8a.49.49,0,0,1,.66.24.5.5,0,0,1-.24.67q-.9.42-1.83.81A.43.43,0,0,1,127,128.78Zm-55.95-1.66a.48.48,0,0,1-.23-.05c-.6-.3-1.19-.61-1.78-.93a.5.5,0,0,1,.48-.88c.58.32,1.16.62,1.75.92a.5.5,0,0,1,.23.67A.51.51,0,0,1,71.05,127.12Zm59.55,0a.49.49,0,0,1-.45-.28.51.51,0,0,1,.22-.67c.59-.29,1.17-.6,1.75-.91a.5.5,0,0,1,.68.21.49.49,0,0,1-.2.67c-.59.32-1.18.63-1.78.93A.59.59,0,0,1,130.6,127.11Zm-63.06-1.88a.43.43,0,0,1-.25-.07c-.58-.33-1.16-.68-1.73-1a.5.5,0,0,1,.53-.85c.56.35,1.13.69,1.7,1a.5.5,0,0,1-.25.93Zm66.55,0a.49.49,0,0,1-.43-.24.51.51,0,0,1,.18-.69l1.7-1a.48.48,0,0,1,.68.16.49.49,0,0,1-.16.69c-.56.35-1.14.69-1.71,1A.58.58,0,0,1,134.09,125.22Zm-69.94-2.09a.48.48,0,0,1-.28-.08c-.56-.37-1.11-.75-1.66-1.13a.5.5,0,1,1,.58-.82l1.63,1.12a.5.5,0,0,1-.27.91Zm73.32,0a.5.5,0,0,1-.27-.91l1.63-1.12a.5.5,0,0,1,.57.82c-.54.38-1.09.76-1.65,1.13A.48.48,0,0,1,137.47,123.13Zm3.25-2.29a.5.5,0,0,1-.3-.9c.53-.39,1.05-.8,1.57-1.21a.5.5,0,0,1,.7.08.5.5,0,0,1-.08.7q-.78.63-1.59,1.23A.47.47,0,0,1,140.72,120.84Zm-79.83,0a.47.47,0,0,1-.3-.1q-.81-.6-1.59-1.23a.5.5,0,0,1-.08-.7.51.51,0,0,1,.71-.08c.51.41,1,.81,1.56,1.21a.5.5,0,0,1-.3.9Zm82.94-2.48a.5.5,0,0,1-.32-.88c.5-.43,1-.86,1.49-1.3a.48.48,0,0,1,.7,0,.49.49,0,0,1,0,.7c-.5.45-1,.89-1.51,1.32A.5.5,0,0,1,143.83,118.36Zm-86.06,0a.51.51,0,0,1-.32-.12c-.51-.43-1-.87-1.51-1.32a.5.5,0,1,1,.67-.74c.49.44,1,.87,1.49,1.3a.5.5,0,0,1,.06.7A.5.5,0,0,1,57.77,118.35Zm89-2.65a.48.48,0,0,1-.36-.16.49.49,0,0,1,0-.7c.47-.46.94-.92,1.4-1.39a.5.5,0,1,1,.72.7c-.47.48-.95.95-1.43,1.41A.52.52,0,0,1,146.79,115.7Zm-92,0a.52.52,0,0,1-.35-.14c-.48-.46-1-.93-1.43-1.41a.5.5,0,0,1,0-.71.49.49,0,0,1,.7,0l1.41,1.39a.49.49,0,0,1,0,.7A.48.48,0,0,1,54.82,115.69Zm94.77-2.83a.47.47,0,0,1-.34-.13.5.5,0,0,1,0-.71q.67-.72,1.32-1.47a.5.5,0,0,1,.76.66c-.44.51-.89,1-1.35,1.49A.48.48,0,0,1,149.59,112.86Zm-97.57,0a.5.5,0,0,1-.37-.16c-.45-.49-.9-1-1.34-1.49a.5.5,0,0,1,.75-.66c.44.5.88,1,1.33,1.47a.51.51,0,0,1,0,.71A.5.5,0,0,1,52,112.85Zm100.19-3a.48.48,0,0,1-.32-.11.5.5,0,0,1-.07-.7c.42-.51.83-1,1.24-1.55a.51.51,0,0,1,.7-.09.5.5,0,0,1,.09.7c-.41.53-.83,1.06-1.25,1.57A.51.51,0,0,1,152.21,109.86Zm-102.81,0a.52.52,0,0,1-.39-.19c-.42-.51-.84-1-1.25-1.56a.49.49,0,0,1,.09-.7.5.5,0,0,1,.7.08c.41.53.82,1,1.24,1.55a.5.5,0,0,1-.07.7A.51.51,0,0,1,49.4,109.86Zm105.25-3.14a.51.51,0,0,1-.29-.1.49.49,0,0,1-.11-.7q.58-.8,1.14-1.62a.5.5,0,1,1,.82.57c-.37.55-.76,1.1-1.15,1.64A.52.52,0,0,1,154.65,106.72ZM47,106.71a.51.51,0,0,1-.4-.2c-.39-.54-.78-1.09-1.16-1.64a.5.5,0,0,1,.83-.57q.56.83,1.14,1.62a.51.51,0,0,1-.11.7A.53.53,0,0,1,47,106.71Zm-2.24-3.28a.49.49,0,0,1-.42-.23c-.36-.56-.71-1.13-1.06-1.7a.51.51,0,0,1,.18-.69.49.49,0,0,1,.68.17c.34.57.69,1.12,1,1.68a.5.5,0,0,1-.15.69A.53.53,0,0,1,44.72,103.43Zm112.18,0a.53.53,0,0,1-.27-.08.5.5,0,0,1-.15-.69c.35-.56.7-1.12,1-1.69a.5.5,0,0,1,.69-.17.51.51,0,0,1,.17.69c-.34.57-.7,1.14-1.06,1.7A.5.5,0,0,1,156.9,103.43ZM42.68,100a.49.49,0,0,1-.44-.26c-.33-.58-.64-1.16-1-1.76a.5.5,0,0,1,.21-.67.51.51,0,0,1,.68.21q.45.87.93,1.74a.5.5,0,0,1-.19.68A.53.53,0,0,1,42.68,100ZM159,100a.5.5,0,0,1-.44-.74c.33-.58.64-1.16.94-1.74a.51.51,0,0,1,.68-.22.51.51,0,0,1,.21.68c-.31.59-.63,1.18-1,1.77A.5.5,0,0,1,159,100ZM40.84,96.5a.5.5,0,0,1-.45-.29c-.29-.6-.57-1.2-.84-1.81a.5.5,0,0,1,.91-.41c.27.6.54,1.2.83,1.79a.5.5,0,0,1-.23.67A.59.59,0,0,1,40.84,96.5Zm120,0a.44.44,0,0,1-.22,0,.5.5,0,0,1-.23-.66c.29-.6.57-1.19.84-1.8a.5.5,0,0,1,.91.41c-.27.61-.56,1.22-.85,1.82A.48.48,0,0,1,160.79,96.46ZM39.22,92.87a.48.48,0,0,1-.46-.31c-.25-.62-.5-1.24-.74-1.86a.52.52,0,0,1,.29-.65.5.5,0,0,1,.65.29c.23.62.47,1.23.72,1.84a.5.5,0,0,1-.27.66A.63.63,0,0,1,39.22,92.87Zm123.2-.05a.41.41,0,0,1-.19,0,.5.5,0,0,1-.28-.65c.26-.61.5-1.23.73-1.85a.5.5,0,0,1,.94.36c-.24.63-.48,1.25-.74,1.87A.51.51,0,0,1,162.42,92.82ZM37.82,89.15a.49.49,0,0,1-.47-.34c-.22-.63-.43-1.27-.63-1.91a.5.5,0,0,1,.33-.62.49.49,0,0,1,.63.33c.19.63.4,1.25.61,1.87a.5.5,0,0,1-.31.64A.45.45,0,0,1,37.82,89.15Zm126-.07a.45.45,0,0,1-.16,0,.5.5,0,0,1-.31-.63c.21-.63.42-1.25.61-1.89a.5.5,0,0,1,1,.3c-.2.64-.41,1.28-.62,1.91A.51.51,0,0,1,163.82,89.08ZM36.64,85.34a.49.49,0,0,1-.48-.36c-.18-.65-.35-1.29-.51-2a.5.5,0,0,1,1-.23c.15.64.32,1.28.49,1.91a.49.49,0,0,1-.34.61A.34.34,0,0,1,36.64,85.34ZM165,85.27l-.14,0a.5.5,0,0,1-.35-.61c.18-.64.34-1.28.5-1.92a.5.5,0,0,1,1,.24c-.16.65-.33,1.3-.5,1.94A.5.5,0,0,1,165,85.27ZM35.7,81.47a.5.5,0,0,1-.49-.39c-.14-.65-.27-1.31-.39-2a.5.5,0,1,1,1-.18c.12.65.25,1.3.39,1.94a.5.5,0,0,1-.39.59Zm130.24-.07h-.11a.49.49,0,0,1-.38-.59c.13-.65.26-1.29.38-1.94a.51.51,0,0,1,.58-.41.5.5,0,0,1,.4.58c-.12.66-.25,1.32-.38,2A.5.5,0,0,1,165.94,81.4ZM35,77.56a.5.5,0,0,1-.49-.43c-.1-.66-.19-1.32-.27-2a.5.5,0,0,1,.44-.55.49.49,0,0,1,.55.43c.08.66.17,1.31.27,2a.5.5,0,0,1-.42.57Zm131.66-.08h-.07a.5.5,0,0,1-.42-.57c.1-.65.18-1.31.26-2a.51.51,0,0,1,.56-.44.49.49,0,0,1,.43.56c-.08.66-.16,1.33-.26,2A.51.51,0,0,1,166.64,77.48ZM34.51,73.6a.5.5,0,0,1-.5-.45c-.06-.67-.11-1.33-.15-2a.51.51,0,0,1,.47-.53.52.52,0,0,1,.53.47c0,.66.09,1.31.15,2a.5.5,0,0,1-.45.54Zm132.6-.07h0a.51.51,0,0,1-.46-.55c.06-.65.11-1.31.15-2a.5.5,0,1,1,1,.06c0,.67-.09,1.34-.15,2A.5.5,0,0,1,167.11,73.53ZM34.27,69.63a.5.5,0,0,1-.5-.49c0-.66,0-1.33,0-2a.5.5,0,0,1,1,0c0,.66,0,1.32,0,2a.5.5,0,0,1-.48.52Zm133.08-.08h0a.5.5,0,0,1-.48-.51q0-1,0-2v-.15a.5.5,0,0,1,.5-.5.5.5,0,0,1,.5.5v.15q0,1,0,2A.5.5,0,0,1,167.35,69.55ZM34.27,65.65h0a.5.5,0,0,1-.48-.52c0-.67,0-1.34.09-2a.49.49,0,0,1,.52-.47.5.5,0,0,1,.47.53c0,.65-.06,1.31-.08,2A.51.51,0,0,1,34.27,65.65Zm133.07-.23a.5.5,0,0,1-.5-.48c0-.67-.05-1.32-.09-2a.52.52,0,0,1,.47-.53.5.5,0,0,1,.53.47c0,.67.07,1.33.09,2a.5.5,0,0,1-.48.52ZM34.5,61.67h0a.5.5,0,0,1-.45-.54c.06-.67.13-1.33.21-2a.5.5,0,0,1,1,.12c-.08.65-.15,1.31-.2,2A.51.51,0,0,1,34.5,61.67Zm132.6-.22a.51.51,0,0,1-.5-.46c-.06-.66-.13-1.31-.21-2a.5.5,0,0,1,.44-.56.51.51,0,0,1,.56.44c.08.66.15,1.32.21,2a.5.5,0,0,1-.45.54ZM35,57.72h-.07a.5.5,0,0,1-.42-.56c.1-.67.21-1.33.32-2a.5.5,0,1,1,1,.17c-.12.65-.22,1.3-.32,1.95A.51.51,0,0,1,35,57.72Zm131.66-.23a.5.5,0,0,1-.5-.42c-.09-.65-.2-1.3-.32-2a.5.5,0,1,1,1-.18q.18,1,.33,2a.5.5,0,0,1-.42.57ZM35.67,53.8h-.11a.49.49,0,0,1-.38-.59c.13-.66.28-1.31.44-2a.49.49,0,0,1,.6-.37.51.51,0,0,1,.37.6c-.15.64-.3,1.29-.44,1.93A.48.48,0,0,1,35.67,53.8Zm130.23-.22a.49.49,0,0,1-.48-.4c-.14-.64-.29-1.29-.45-1.92a.51.51,0,0,1,.37-.61.49.49,0,0,1,.6.37c.16.64.31,1.3.45,1.95a.5.5,0,0,1-.38.6ZM36.6,49.93l-.13,0a.5.5,0,0,1-.35-.61c.18-.65.36-1.29.56-1.93a.5.5,0,0,1,1,.29c-.2.63-.38,1.27-.56,1.9A.5.5,0,0,1,36.6,49.93ZM165,49.71a.51.51,0,0,1-.49-.37c-.17-.63-.36-1.26-.55-1.89a.5.5,0,1,1,1-.3c.2.64.39,1.28.57,1.93a.5.5,0,0,1-.35.61ZM37.77,46.12a.45.45,0,0,1-.16,0,.5.5,0,0,1-.31-.63c.21-.64.44-1.27.68-1.9a.5.5,0,0,1,.93.35c-.23.62-.45,1.24-.67,1.87A.49.49,0,0,1,37.77,46.12Zm126-.21a.5.5,0,0,1-.47-.34c-.21-.62-.44-1.24-.67-1.86a.49.49,0,0,1,.29-.64.5.5,0,0,1,.65.29c.23.62.46,1.25.68,1.88a.5.5,0,0,1-.31.64A.51.51,0,0,1,163.77,45.91ZM39.17,42.38a.65.65,0,0,1-.19,0,.5.5,0,0,1-.27-.65c.25-.62.51-1.24.79-1.85a.5.5,0,0,1,.66-.26.51.51,0,0,1,.25.66c-.27.61-.53,1.21-.78,1.83A.5.5,0,0,1,39.17,42.38Zm123.2-.2a.47.47,0,0,1-.46-.31c-.25-.6-.51-1.21-.78-1.81a.5.5,0,0,1,.25-.66.5.5,0,0,1,.66.25c.27.61.54,1.23.79,1.84a.51.51,0,0,1-.27.66A.63.63,0,0,1,162.37,42.18ZM40.79,38.73a.59.59,0,0,1-.22,0,.51.51,0,0,1-.23-.67q.44-.9.9-1.8a.5.5,0,0,1,.89.46c-.31.59-.6,1.18-.89,1.78A.5.5,0,0,1,40.79,38.73Zm120-.17a.5.5,0,0,1-.45-.28c-.28-.59-.58-1.18-.88-1.76a.5.5,0,1,1,.88-.47c.31.6.61,1.19.9,1.79a.5.5,0,0,1-.23.67A.54.54,0,0,1,160.74,38.56ZM42.63,35.19a.42.42,0,0,1-.24-.07.5.5,0,0,1-.2-.68c.33-.58.66-1.16,1-1.74a.5.5,0,0,1,.86.52q-.51.84-1,1.71A.51.51,0,0,1,42.63,35.19ZM158.9,35a.49.49,0,0,1-.43-.26c-.32-.57-.65-1.14-1-1.7a.49.49,0,0,1,.17-.69.5.5,0,0,1,.68.17c.35.58.68,1.15,1,1.73a.51.51,0,0,1-.19.69A.54.54,0,0,1,158.9,35ZM44.68,31.76a.5.5,0,0,1-.27-.07.5.5,0,0,1-.16-.69q.54-.86,1.11-1.68a.5.5,0,0,1,.83.56c-.37.55-.74,1.1-1.09,1.65A.51.51,0,0,1,44.68,31.76Zm112.18-.13a.48.48,0,0,1-.42-.23c-.36-.55-.72-1.1-1.1-1.64a.52.52,0,0,1,.13-.7.51.51,0,0,1,.7.13c.38.55.74,1.11,1.11,1.67a.5.5,0,0,1-.15.69A.47.47,0,0,1,156.86,31.63ZM46.92,28.47a.52.52,0,0,1-.29-.09.49.49,0,0,1-.11-.7c.39-.54.79-1.08,1.2-1.61a.5.5,0,1,1,.79.61c-.4.52-.8,1.05-1.19,1.59A.49.49,0,0,1,46.92,28.47Zm107.69-.12a.49.49,0,0,1-.4-.2c-.39-.53-.79-1.06-1.19-1.58a.5.5,0,0,1,.79-.61c.41.52.81,1.06,1.2,1.6a.49.49,0,0,1-.11.7A.5.5,0,0,1,154.61,28.35Zm-105.25-3a.54.54,0,0,1-.32-.11A.52.52,0,0,1,49,24.5c.43-.52.86-1,1.3-1.53a.51.51,0,0,1,.71,0,.51.51,0,0,1,0,.71c-.43.49-.86,1-1.28,1.51A.48.48,0,0,1,49.36,25.32Zm102.81-.11a.5.5,0,0,1-.39-.18c-.42-.51-.84-1-1.28-1.51a.5.5,0,0,1,.75-.65c.44.5.88,1,1.3,1.52a.51.51,0,0,1-.06.71A.56.56,0,0,1,152.17,25.21ZM52,22.32a.48.48,0,0,1-.34-.13.5.5,0,0,1,0-.71c.46-.49.92-1,1.39-1.45a.49.49,0,0,1,.7,0,.5.5,0,0,1,0,.71c-.46.47-.92.95-1.36,1.43A.5.5,0,0,1,52,22.32Zm97.56-.1a.52.52,0,0,1-.36-.16c-.45-.48-.91-1-1.37-1.43a.49.49,0,0,1,0-.7.48.48,0,0,1,.7,0c.47.48.93,1,1.39,1.45a.49.49,0,0,1,0,.7A.52.52,0,0,1,149.54,22.22ZM54.77,19.48a.51.51,0,0,1-.36-.15.51.51,0,0,1,0-.71l1.47-1.37a.51.51,0,0,1,.71,0,.5.5,0,0,1,0,.71c-.49.44-1,.89-1.44,1.34A.49.49,0,0,1,54.77,19.48Zm92-.09a.52.52,0,0,1-.35-.14c-.47-.46-1-.9-1.45-1.35a.5.5,0,1,1,.67-.74c.5.45,1,.9,1.47,1.36a.5.5,0,0,1,0,.71A.52.52,0,0,1,146.75,19.39Zm-89-2.58a.52.52,0,0,1-.39-.17.52.52,0,0,1,.06-.71c.51-.43,1-.85,1.55-1.27a.5.5,0,1,1,.62.78c-.51.41-1,.83-1.52,1.26A.5.5,0,0,1,57.73,16.81Zm86.06-.09a.51.51,0,0,1-.33-.11q-.75-.64-1.53-1.26a.5.5,0,1,1,.63-.78c.52.42,1,.84,1.55,1.27a.51.51,0,0,1,.06.71A.52.52,0,0,1,143.79,16.72Zm-83-2.39a.5.5,0,0,1-.3-.9l1.62-1.18a.5.5,0,0,1,.7.12.51.51,0,0,1-.12.7c-.54.38-1.07.76-1.6,1.16A.47.47,0,0,1,60.83,14.33Zm79.84-.09a.47.47,0,0,1-.3-.1c-.53-.39-1.06-.78-1.6-1.16a.5.5,0,0,1,.57-.82L141,13.34a.5.5,0,0,1-.3.9ZM64.08,12a.5.5,0,0,1-.28-.91c.56-.37,1.12-.73,1.69-1.08a.49.49,0,0,1,.69.16.51.51,0,0,1-.16.69c-.56.34-1.12.7-1.66,1.06A.48.48,0,0,1,64.08,12ZM137.41,12a.57.57,0,0,1-.28-.08c-.55-.37-1.11-.72-1.67-1.07A.5.5,0,1,1,136,10c.57.35,1.13.71,1.69,1.08a.5.5,0,0,1,.14.7A.49.49,0,0,1,137.41,12Zm-69.95-2A.52.52,0,0,1,67,9.69.51.51,0,0,1,67.21,9c.57-.34,1.16-.66,1.74-1a.5.5,0,0,1,.48.88c-.58.31-1.15.63-1.72,1A.47.47,0,0,1,67.46,9.94ZM134,9.85a.51.51,0,0,1-.25-.06c-.58-.33-1.15-.65-1.73-1a.5.5,0,0,1,.47-.89c.59.32,1.17.65,1.75,1a.5.5,0,0,1,.19.68A.48.48,0,0,1,134,9.85ZM71,8.05a.48.48,0,0,1-.44-.28.49.49,0,0,1,.22-.67q.88-.45,1.8-.87a.5.5,0,0,1,.66.24.5.5,0,0,1-.24.67c-.6.27-1.19.56-1.77.86A.64.64,0,0,1,71,8.05ZM130.5,8a.46.46,0,0,1-.22-.06c-.59-.29-1.19-.58-1.79-.85a.5.5,0,0,1-.24-.67.49.49,0,0,1,.66-.24c.61.28,1.21.57,1.81.87a.5.5,0,0,1-.22,1ZM74.55,6.37a.5.5,0,0,1-.46-.3.51.51,0,0,1,.26-.66l1.85-.76a.51.51,0,0,1,.65.28.5.5,0,0,1-.28.65c-.61.24-1.22.49-1.82.75A.48.48,0,0,1,74.55,6.37Zm52.33-.08a.48.48,0,0,1-.2,0c-.6-.26-1.22-.51-1.83-.75a.5.5,0,0,1-.29-.64.5.5,0,0,1,.65-.29c.63.25,1.25.5,1.86.76a.5.5,0,0,1-.19,1ZM78.25,4.91a.48.48,0,0,1-.47-.33.5.5,0,0,1,.3-.64L80,3.29a.51.51,0,0,1,.63.32.5.5,0,0,1-.32.63l-1.87.64A.34.34,0,0,1,78.25,4.91Zm44.91-.07a.51.51,0,0,1-.17,0l-1.88-.64a.5.5,0,0,1-.32-.63.51.51,0,0,1,.63-.32c.64.21,1.28.42,1.91.65a.5.5,0,0,1-.17,1ZM82,3.68a.5.5,0,0,1-.14-1c.64-.19,1.29-.37,1.94-.54a.5.5,0,0,1,.25,1c-.64.17-1.27.34-1.91.53Zm37.33-.06-.14,0c-.63-.19-1.26-.36-1.9-.53a.49.49,0,0,1-.36-.6.5.5,0,0,1,.61-.36c.65.16,1.29.34,1.93.53a.48.48,0,0,1,.34.61A.5.5,0,0,1,119.36,3.62Zm-33.47-1a.49.49,0,0,1-.49-.39.5.5,0,0,1,.38-.59c.65-.15,1.3-.29,2-.42a.5.5,0,0,1,.19,1c-.65.13-1.29.26-1.93.41Zm29.62,0h-.11l-1.94-.41a.49.49,0,0,1-.39-.58.5.5,0,0,1,.58-.4l2,.41a.5.5,0,0,1-.11,1ZM89.79,1.9a.5.5,0,0,1-.08-1l2-.3a.51.51,0,0,1,.57.43.51.51,0,0,1-.43.56l-2,.29Zm21.81,0h-.08c-.65-.11-1.3-.2-2-.29a.51.51,0,0,1-.43-.56.5.5,0,0,1,.56-.43c.67.09,1.33.18,2,.29a.5.5,0,0,1-.08,1ZM93.74,1.37a.51.51,0,0,1-.5-.45.5.5,0,0,1,.45-.55c.66-.07,1.32-.13,2-.18a.5.5,0,1,1,.08,1c-.66.05-1.32.11-2,.18Zm13.91,0h-.05c-.65-.07-1.31-.12-2-.17a.5.5,0,0,1,.07-1l2,.17a.5.5,0,0,1,0,1Zm-9.94-.28a.49.49,0,0,1-.5-.47.5.5,0,0,1,.48-.52C98.35,0,99,0,99.69,0a.51.51,0,0,1,.51.49.5.5,0,0,1-.49.51q-1,0-2,.06Zm6,0h0l-2-.05a.5.5,0,0,1,0-1h0c.67,0,1.34,0,2,.06a.5.5,0,0,1,.48.52A.5.5,0,0,1,103.68,1.06Z"/><path class="cls-1" d="M0,165.9a12.56,12.56,0,0,1,.49-3.54,13.14,13.14,0,0,1,1.4-3.18,13.29,13.29,0,0,1,2.16-2.69,14.15,14.15,0,0,1,6.11-3.4,14.33,14.33,0,0,1,3.68-.46,14.5,14.5,0,0,1,3.68.46,14.38,14.38,0,0,1,6.13,3.4,13.69,13.69,0,0,1,2.17,2.69,13.11,13.11,0,0,1,1.39,3.18,12.78,12.78,0,0,1,0,7.08,13.22,13.22,0,0,1-1.39,3.17,13.75,13.75,0,0,1-2.17,2.7,14,14,0,0,1-2.82,2.06,14.35,14.35,0,0,1-3.31,1.34,14.5,14.5,0,0,1-3.68.47,14.33,14.33,0,0,1-3.68-.47,14,14,0,0,1-3.31-1.34,13.58,13.58,0,0,1-2.8-2.06,13.41,13.41,0,0,1-3.56-5.87A12.61,12.61,0,0,1,0,165.9Zm5.89,0a8.53,8.53,0,0,0,.62,3.26,8.12,8.12,0,0,0,1.71,2.59,7.79,7.79,0,0,0,5.62,2.35,7.91,7.91,0,0,0,3.13-.62,7.7,7.7,0,0,0,2.53-1.73,8.26,8.26,0,0,0,1.7-2.59,8.85,8.85,0,0,0,0-6.51,8.43,8.43,0,0,0-1.7-2.6A7.82,7.82,0,0,0,17,158.34a7.74,7.74,0,0,0-3.13-.62,7.69,7.69,0,0,0-3.09.62,7.93,7.93,0,0,0-2.53,1.72,8.28,8.28,0,0,0-1.71,2.6A8.51,8.51,0,0,0,5.89,165.91Z"/><path class="cls-1" d="M45.57,165.24H41.81v8.25H35.9V148.15H47a10.36,10.36,0,0,1,3.67.63,8.65,8.65,0,0,1,2.9,1.75,8,8,0,0,1,1.9,2.7,8.76,8.76,0,0,1,.68,3.49,9,9,0,0,1-.34,2.53,8,8,0,0,1-1,2.15,7.39,7.39,0,0,1-1.49,1.71,8.28,8.28,0,0,1-2,1.25l5.35,9.13H50Zm1.2-5.07a3.65,3.65,0,0,0,1.36-.25,3.39,3.39,0,0,0,1.1-.7,3.18,3.18,0,0,0,.75-1.08,3.82,3.82,0,0,0,0-2.82,3.3,3.3,0,0,0-.75-1.11,3.47,3.47,0,0,0-1.1-.73,3.66,3.66,0,0,0-1.36-.26h-5v6.95Z"/><path class="cls-1" d="M64.07,173.49V148.15H75.35a11.11,11.11,0,0,1,3.37.48A7.26,7.26,0,0,1,81.3,150,6.14,6.14,0,0,1,83,152.22a7.52,7.52,0,0,1,.58,3,4.89,4.89,0,0,1-.26,1.55,5.72,5.72,0,0,1-.67,1.41,5.57,5.57,0,0,1-1,1.13,3.9,3.9,0,0,1-1.17.74,6.83,6.83,0,0,1,1.72.88,7,7,0,0,1,1.43,1.34,6.3,6.3,0,0,1,1,1.69,5.62,5.62,0,0,1,.35,2,7.52,7.52,0,0,1-.74,3.48,6.79,6.79,0,0,1-2,2.34,8.06,8.06,0,0,1-2.73,1.32,11.62,11.62,0,0,1-3.09.42ZM70,158.31h5a2.22,2.22,0,0,0,.91-.19,2.52,2.52,0,0,0,.81-.53,2.91,2.91,0,0,0,.57-.83,2.52,2.52,0,0,0,.23-1.08,2.56,2.56,0,0,0-.22-1.07,2.65,2.65,0,0,0-.57-.85,2.44,2.44,0,0,0-.8-.55A2.25,2.25,0,0,0,75,153H70Zm5.85,10.32a3.16,3.16,0,0,0,1-.18,3,3,0,0,0,1-.54,3.09,3.09,0,0,0,.74-.92,2.74,2.74,0,0,0,.3-1.32,2.86,2.86,0,0,0-.24-1.2,2.89,2.89,0,0,0-.65-.92,2.94,2.94,0,0,0-1-.58,3.28,3.28,0,0,0-1.17-.21H70v5.87Z"/><path class="cls-1" d="M109,169.47H98.35l-1.6,4H90.51l10.38-25.36h5.55l10.38,25.36H110.6Zm-8.59-5h6.55l-3.07-7.66-.19-.82h0l-.19.82Z"/><path class="cls-1" d="M123.77,148.15h5.9v20.28h10.62v5.06H123.77Z"/><path class="cls-1" d="M148,148.15h5.91v20.28h10.62v5.06H148Z"/><path class="cls-1" d="M170.23,155.2a12.93,12.93,0,0,1,.49-3.54,13.07,13.07,0,0,1,1.4-3.17,13.36,13.36,0,0,1,2.16-2.69,13.58,13.58,0,0,1,2.8-2.06,13.75,13.75,0,0,1,3.31-1.34,14.95,14.95,0,0,1,7.36,0,14.38,14.38,0,0,1,6.13,3.4,13.4,13.4,0,0,1,2.17,2.69,12.91,12.91,0,0,1,0,13.43,13.4,13.4,0,0,1-2.17,2.69,13.65,13.65,0,0,1-2.82,2.07,14.33,14.33,0,0,1-3.31,1.33,14.35,14.35,0,0,1-7.36,0,14.15,14.15,0,0,1-3.31-1.33,13.34,13.34,0,0,1-6.36-7.94A12.93,12.93,0,0,1,170.23,155.2Zm5.89,0a8.47,8.47,0,0,0,.62,3.25,8.16,8.16,0,0,0,1.71,2.6,7.79,7.79,0,0,0,5.63,2.35,8,8,0,0,0,3.13-.62,7.76,7.76,0,0,0,2.52-1.73,8.31,8.31,0,0,0,1.7-2.6,8.46,8.46,0,0,0-1.7-9.1,7.73,7.73,0,0,0-2.52-1.72,7.81,7.81,0,0,0-3.13-.63,7.9,7.9,0,0,0-5.63,2.35,8.28,8.28,0,0,0-1.71,2.6A8.51,8.51,0,0,0,176.12,155.22Z"/><path class="cls-1" d="M166.57,180a1.17,1.17,0,0,1,.07-.38,1,1,0,0,1,.21-.31.89.89,0,0,1,.32-.21,1.14,1.14,0,0,1,.84,0,1,1,0,0,1,.32.21,1,1,0,0,1,.21.31,1,1,0,0,1,0,.75,1,1,0,0,1-.21.31,1,1,0,0,1-.32.21,1.16,1.16,0,0,1-.42.07,1,1,0,0,1-.42-.08,1,1,0,0,1-.32-.2,1,1,0,0,1-.21-.31A1.16,1.16,0,0,1,166.57,180Z"/><path class="cls-1" d="M171.33,172.65h3.32a5.36,5.36,0,0,1,1.73.26,4.06,4.06,0,0,1,1.38.78,3.53,3.53,0,0,1,.92,1.28,4.33,4.33,0,0,1,.34,1.75,4.68,4.68,0,0,1-.29,1.67,3.65,3.65,0,0,1-.84,1.29,3.84,3.84,0,0,1-1.37.83,5.28,5.28,0,0,1-1.85.3h-3.34Zm3.29,6.53a2.51,2.51,0,0,0,1.85-.63,2.4,2.4,0,0,0,.64-1.8,3.22,3.22,0,0,0-.15-1,2,2,0,0,0-.46-.78,2.1,2.1,0,0,0-.78-.5,3.3,3.3,0,0,0-1.1-.17h-1.39v4.9Z"/><path class="cls-1" d="M181.68,172.65h5.75v1.63h-3.85V176h3.3v1.64h-3.3v1.59h3.9v1.63h-5.8Z"/><path class="cls-1" d="M191.89,178.11h.05l.23-.57,3.53-4.9h2.21L192,180.81h-2l0-8.17h1.87Z"/></g></g></svg>